<svg xmlns="http://www.w3.org/2000/svg" width="51.781" height="90" viewBox="0 0 51.781 90">
  <defs>
    <style>
      .cls-1 {
        fill: #ec2427;
        fill-rule: evenodd;
      }
    </style>
  </defs>
  <path id="pin_big" class="cls-1" d="M949.886,2337A25.675,25.675,0,0,0,924,2362.46c0,0.73.042,1.43,0.1,2.15,0.025,0.25.057,0.51,0.088,0.76,0.046,0.43.1,0.85,0.176,1.27,0.056,0.33.109,0.66,0.18,0.99,0.046,0.22.105,0.45,0.154,0.67,2.354,10.08,10.325,18.16,16.469,31.99a132.4,132.4,0,0,1,4.754,12.63l3.966,14.08,3.965-14.08a133.213,133.213,0,0,1,4.754-12.63c6.144-13.83,14.118-21.91,16.461-31.99,0.061-.22.106-0.45,0.155-0.67,0.067-.33.127-0.66,0.183-0.99,0.066-.42.135-0.84,0.181-1.27,0.031-.25.063-0.51,0.083-0.76,0.064-.72.1-1.43,0.1-2.15A25.676,25.676,0,0,0,949.886,2337Zm0,36.96a11.507,11.507,0,1,1,11.7-11.51A11.6,11.6,0,0,1,949.882,2373.96Z" transform="translate(-924 -2337)"/>
</svg>
