<?xml version="1.0" encoding="utf-8"?>
<!-- Generator: Adobe Illustrator 19.0.0, SVG Export Plug-In . SVG Version: 6.00 Build 0)  -->
<svg version="1.1" id="Шар_1" xmlns="http://www.w3.org/2000/svg" xmlns:xlink="http://www.w3.org/1999/xlink" x="0px" y="0px"
	 viewBox="31 136 351.7 521.9" style="enable-background:new 31 136 351.7 521.9;" xml:space="preserve">
<style type="text/css">
	.st0{stroke:#000000;stroke-width:10;stroke-miterlimit:10;}
</style>
<g>
	<path class="st0" d="M207,141c-94.1,0-170.7,76.5-170.7,170.6v170.8C36.3,576.5,112.9,653,207,653s170.7-76.5,170.7-170.6V311.6
		C377.7,217.5,301.1,141,207,141z M358.7,482.4C358.7,566,290.6,634,207,634S55.3,566,55.3,482.4V311.6C55.3,228,123.4,160,207,160
		s151.7,68,151.7,151.6V482.4z"/>
	<path class="st0" d="M207,197.9c-5.2,0-9.5,4.2-9.5,9.5v85.9c0,5.2,4.2,9.5,9.5,9.5c5.2,0,9.5-4.2,9.5-9.5v-85.9
		C216.5,202.1,212.2,197.9,207,197.9z"/>
</g>
</svg>
